<svg xmlns="http://www.w3.org/2000/svg" viewBox="0 0 512 512" role="img" aria-label="RoboPetCare logo">
  <rect width="512" height="512" fill="#d9d9db"/>

  <circle cx="256" cy="220" r="172" fill="#e6e6e8" stroke="#4a4a50" stroke-width="10"/>
  <circle cx="256" cy="220" r="158" fill="none" stroke="#4a4a50" stroke-width="6"/>

  <g fill="#060606">
    <!-- cat silhouette -->
    <path d="M220 118c11-12 30-18 49-13l7-17 12 18c11 6 19 17 22 31 4 23-3 46-4 66-2 31 11 56 3 77-10 23-44 32-72 24-28-8-50-37-50-67 0-24 14-45 18-68 4-20-2-39 0-60 2-13 7-24 15-31z"/>
    <path d="M198 143c-20 10-52 13-78 29-12 7-19 17-25 29l-17-8c8-21 21-37 38-48 26-17 61-27 87-31z"/>
    <circle cx="278" cy="126" r="5" fill="#ffffff"/>
    <path d="M260 209c-15 5-27 16-33 30 12-8 25-11 41-8 11 2 19 8 24 16 1-16-9-35-32-38z" fill="#d9d9db"/>
  </g>

  <!-- stylized robotic hand -->
  <g fill="#111111">
    <path d="M308 309l47 47h52l13-18 18-6 20 20-19 31h-76l-73-73z"/>
    <rect x="292" y="306" width="58" height="14" rx="7" transform="rotate(43 321 313)"/>
    <circle cx="391" cy="344" r="8" fill="#d9d9db"/>
    <circle cx="333" cy="327" r="7" fill="#d9d9db"/>
  </g>

  <!-- curved brand text -->
  <path id="brandArc" d="M62 350 A206 206 0 0 0 450 350" fill="none"/>
  <text font-family="Arial Rounded MT Bold, Trebuchet MS, sans-serif" font-size="86" font-weight="700" letter-spacing="1.2" fill="#0a0a0a">
    <textPath href="#brandArc" startOffset="50%" text-anchor="middle">RoboPetCare</textPath>
  </text>
</svg>
